<?xml version="1.0" standalone="no"?><!DOCTYPE svg PUBLIC "-//W3C//DTD SVG 1.1//EN" "http://www.w3.org/Graphics/SVG/1.1/DTD/svg11.dtd"><svg t="1531992625263" class="icon" style="" viewBox="0 0 1024 1024" version="1.1" xmlns="http://www.w3.org/2000/svg" p-id="2192" xmlns:xlink="http://www.w3.org/1999/xlink" width="128" height="128"><defs><style type="text/css"></style></defs><path d="M958.4 740.3c-0.2-45.4-14-91-40.6-128C891 575 854.4 547 811.3 531.1c-85.8-31.7-187.5-4.1-245.6 66.5-29.9 36.4-47.8 80.3-51.4 127.3-3.4 45.1 7.9 91.5 31.3 130.2 22.8 37.5 57 68.8 97.1 86.9 43.7 19.7 91.7 25.3 138.8 15.9 88.1-17.7 160.2-92.5 173.7-181.5 1.9-12 3.1-24 3.2-36.1 0-11.2-9.9-22-21.5-21.5-11.7 0.5-21.5 9.4-21.5 21.5 0 5.1-0.2 10.2-0.6 15.4-0.2 2.8-0.5 5.5-0.8 8.2-0.2 1.5-1 3.5 0.2-1.6-0.4 1.7-0.5 3.6-0.8 5.4-1.6 9.8-4 19.4-7 28.8-1.5 4.7-3.2 9.2-5 13.8-1.8 4.4 2.1-4.6 0.1-0.2-0.4 0.8-0.7 1.6-1.1 2.4-1.3 2.8-2.6 5.6-4 8.3-4.4 8.6-9.4 16.8-15 24.7-0.8 1.1-1.5 2.1-2.3 3.2-0.3 0.4-3.1 3.8-0.7 1 2.4-2.9-0.4 0.5-0.7 0.9-0.8 1-1.6 2-2.5 3-3.3 4-6.8 7.9-10.5 11.6-3 3.1-6.2 6.1-9.4 9.1-1.9 1.8-3.9 3.5-5.9 5.1-0.7 0.6-1.3 1.1-2 1.7-0.7 0.5-1.4 1.1-2 1.6-1.8 1.4-1.4 1.1 1.2-1-4.1 1.9-8 5.8-11.8 8.3-4.2 2.8-8.5 5.3-13 7.8-4 2.2-8.2 4.3-12.4 6.2-1.2 0.6-2.4 1.1-3.6 1.6-4.3 2 4.7-1.8 0.2-0.1-2.5 1-4.9 2-7.5 2.9-9.3 3.4-18.8 6-28.5 8-2.7 0.5-5.4 1-8 1.4-0.9 0.1-1.8 0.3-2.7 0.4-4.9 0.8 5.2-0.6 0.3-0.1-5.5 0.6-11 1.1-16.6 1.3-10.3 0.4-20.4-0.2-30.6-1.3-4.9-0.5 5.2 0.8 0.3 0.1-1.4-0.2-2.7-0.4-4.1-0.6-2.2-0.4-4.5-0.8-6.7-1.2-5.3-1.1-10.5-2.3-15.7-3.8-4.3-1.2-8.5-2.6-12.7-4.1-2.5-0.9-5-1.9-7.5-2.9-4.3-1.7 3.6 1.7 0.9 0.4-1.4-0.7-2.8-1.2-4.2-1.9-9-4.1-17.6-9-25.9-14.4-3.6-2.4-7.3-6.2-11.2-7.9 4.5 2 2 1.5 0.2 0.1-1-0.8-2-1.6-3-2.5-2-1.7-4-3.4-5.9-5.1-7.1-6.4-13.8-13.3-19.9-20.7-0.8-1-1.7-2-2.5-3-1.3-1.7-2-4.3 0.1 0.2-0.8-1.8-2.7-3.7-3.9-5.3-3-4.3-5.9-8.7-8.6-13.2-2.5-4.1-4.8-8.4-7-12.7-1-2-1.9-4-2.9-5.9-0.6-1.2-1.1-2.4-1.6-3.6-2-4.3 1.9 4.7 0.1 0.2-3.8-9.6-7-19.3-9.4-29.3-1.1-4.6-2-9.3-2.8-14-0.2-1.1-0.3-2.3-0.5-3.4-0.8-4.9 0.6 5.2 0.1 0.3-0.3-2.8-0.6-5.5-0.8-8.2-0.8-10.7-0.8-21.4 0.1-32.1 0.2-2.3 0.5-4.6 0.7-6.9 0.5-4.9-0.8 5.2-0.1 0.3 0.1-0.9 0.3-1.8 0.4-2.7 0.9-5.4 1.9-10.7 3.2-16 2.4-9.8 5.8-19.1 9.3-28.6 1.1-2.9-2.2 5-0.4 0.9 0.5-1.2 1.1-2.4 1.6-3.6 0.9-2 1.9-4 2.9-5.9 2.4-4.7 4.9-9.3 7.7-13.8 2.5-4.1 5.1-8.1 7.9-12.1 1.2-1.7 3-3.4 3.9-5.3-2.1 4.6-1.5 1.9-0.1 0.2 0.8-1 1.6-2 2.5-3 6.4-7.7 13.4-14.9 20.9-21.6 1.6-1.4 3.3-2.9 5-4.3 1-0.8 2-1.7 3-2.5 1.7-1.4 4.2-1.8-0.2 0.1 4.1-1.8 8-5.8 11.8-8.3 8.5-5.5 17.3-10.4 26.5-14.6 0.8-0.4 1.6-0.7 2.4-1.1 4.3-2-4.7 1.9-0.2 0.1 2.3-0.9 4.5-1.8 6.8-2.6 4.8-1.8 9.7-3.3 14.6-4.7 4.8-1.3 9.6-2.5 14.4-3.5 2.2-0.4 4.5-0.9 6.7-1.2 1.3-0.2 2.7-0.4 4.1-0.6 2.4-0.3 1.8-0.3-1.6 0.2l2.7-0.3c10.2-1.1 20.4-1.5 30.7-1 5.1 0.2 10.1 0.7 15.2 1.2 4.7 0.5-4.1-0.6-0.9-0.2 1.1 0.2 2.3 0.3 3.4 0.5 2.7 0.4 5.4 0.9 8 1.4 10.1 2 20 4.8 29.7 8.4 2.1 0.8 4.1 1.6 6.2 2.4 4.4 1.7-4.6-2.1-0.2-0.1 1.2 0.5 2.4 1.1 3.6 1.6 4.4 2 8.7 4.2 12.9 6.6 4.2 2.3 8.3 4.8 12.4 7.5 2 1.3 4 2.7 6 4 0.9 0.6 1.8 1.3 2.7 1.9 1.4 1 5.3 5 0.9 0.6 3.2 3.2 7.2 5.8 10.5 8.8 3.7 3.3 7.3 6.8 10.8 10.4 3.3 3.5 6.5 7 9.6 10.7 1.4 1.6 2.6 3.6 4.1 5.1-4.1-4-1.2-1.5-0.2-0.2 1 1.4 2.1 2.8 3.1 4.3 5.5 7.9 10.5 16.2 14.8 24.8 1.1 2.2 2.1 4.3 3.1 6.5 0.5 1 0.9 2 1.4 3 2 4.3-1.9-4.7-0.1-0.2 1.9 4.8 3.7 9.5 5.2 14.4 3.1 9.7 5.4 19.5 7 29.5 0.2 1.3 0.3 2.8 0.6 4.1-0.1-0.4-0.6-5.4-0.2-1.6 0.3 2.7 0.6 5.5 0.8 8.2 0.4 5.1 0.6 10.2 0.6 15.4 0 11.2 9.9 22 21.5 21.5 11.5-0.5 21.4-9.4 21.4-21.4z" p-id="2193"></path><path d="M513.8 918.8H172.6c-2 0-5-0.6-6.9 0-0.3 0.1-9.5-1.7 1.5 0.2 0.5 0.1 1 0.2 1.6 0.2-2.2-0.7-1.6-0.4 1.7 0.8 0.4 0.2 3.8 3.5 1.5 1 0.6 0.8 1.3 1.6 1.9 2.4 1.1 3.1 1.4 3.9 1 2.3-0.6-2.2 0.5 2 0.3 2.5v-0.1c0.1-0.3 0-0.7 0-1 0.3-5.3 0-10.6 0-15.9v-80.3-126.5-153.3-157.3-142.4-104.8-32.4c0-5 0.5-10.3 0-15.2 0-0.2 0.1-0.6 0-0.8l-0.5 3.1 0.3-1.2c-0.5 2.1-1.5 3.8-3 5.2 1.2-1.3 2.3-1.2-1.5 1-1 0.4-1.9 0.8-2.9 1.1 1.7-0.4 1.6-0.5-0.4-0.1-73.1 12.8-1.8 0.2-1.6 0.2h0.1c1.2 0.3 3.1 0 4.4 0H736.5c20.9 0 41.9 0.5 62.7 0 0.5 0 1.1 0.1 1.5 0 0.7-0.2 11.9 3-3-0.5 3.4 0.8-1.3-0.6-1.7-0.8-0.8-0.6-1.6-1.3-2.4-1.9 1.6 1.6 1.2 1.1-1-1.5-0.2-0.4-1.6-5-0.8-1.7-0.3-3.2-0.5-4.2-0.5-3.1-0.6 1.6 0 4.7 0 6.4V442.8c0 11.2 9.9 22 21.5 21.5s21.5-9.4 21.5-21.5v-79.7-155.4-105.5c0-7-0.7-13.6-4-20.1-5.9-11.6-18.3-17.6-30.9-17.7-6.8-0.1-13.6 0-20.4 0H165.7c-18.9 0.6-33.1 15.3-33.5 34.1-0.1 4.9 0 9.7 0 14.6V881.5c0 15.3-0.4 30.7 0 46 0.4 18.9 14.6 33.3 33.5 34 2.1 0.1 4.2 0 6.4 0H514c11.2 0 22-9.9 21.5-21.5-0.7-11.4-9.7-21.2-21.7-21.2z" p-id="2194"></path><path d="M236.7 252.2c0-11.8 9.7-21.5 21.5-21.5h465.2c11.8 0 21.5 9.7 21.5 21.5s-9.7 21.5-21.5 21.5H258.2c-11.8 0-21.5-9.7-21.5-21.5zM236.7 375.5c0-11.8 9.7-21.5 21.5-21.5h329.6c11.8 0 21.5 9.7 21.5 21.5s-9.7 21.5-21.5 21.5H258.2c-11.8 0-21.5-9.6-21.5-21.5zM240.2 475.6c0-11.8 9.7-21.5 21.5-21.5h211.1c11.8 0 21.5 9.7 21.5 21.5s-9.7 21.5-21.5 21.5H261.7c-11.8 0-21.5-9.7-21.5-21.5zM809.2 852.1H663.6c-7.5 0-13.7 6.2-13.7 13.7s6.2 13.7 13.7 13.7h145.6c7.5 0 13.5-6 13.7-14 0-7.4-6.2-13.4-13.7-13.4zM805.4 744.7h-28.7c-3.7-8.7 1-25.2 13-44.6l0.2-0.5v-0.2c0.2-0.2 0.5-0.7 0.5-0.7 5.2-10 10.5-22.4 10.5-38.6 0-36.2-28.4-64.8-64.8-65.1h-0.5c-36.4 0.2-64.6 28.9-64.6 65.1 0 16.2 5.2 28.4 10.5 38.4 0.2 0.7 0.5 1.2 0.7 1.5l0.2 0.2c12 19.4 16.7 35.7 13 44.6h-28.7c-16.2 0-29.2 13.5-29.2 30.2v48c0 6.7 5.5 12.2 12.2 12.2h172.8c6.7 0 12-5.5 12-12v-48.4c0.1-16.7-12.9-30.1-29.1-30.1z m-140.9 62.8v-32.7c0-1.5 1-2.5 2.2-2.5h40.6l1.7-1.5c20.9-17.2 19.7-47.4-3.5-85-4.7-9.2-7.5-16.5-7.5-25.9 0-21.2 16.5-37.4 37.9-37.7 21.7 0.2 37.9 16.5 37.9 37.7 0 9.7-2.7 17-7.5 25.9-23.2 37.7-24.2 67.8-3.5 85l1.7 1.5h40.4c1.2 0 2.2 1 2.2 2.5v32.7H664.5zM240.2 575.7c0-11.8 9.7-21.5 21.5-21.5h211.1c11.8 0 21.5 9.7 21.5 21.5s-9.7 21.5-21.5 21.5H261.7c-11.8 0-21.5-9.7-21.5-21.5z" p-id="2195"></path></svg>