<?xml version="1.0" standalone="no"?><!DOCTYPE svg PUBLIC "-//W3C//DTD SVG 1.1//EN" "http://www.w3.org/Graphics/SVG/1.1/DTD/svg11.dtd"><svg t="1531981872723" class="icon" style="" viewBox="0 0 1024 1024" version="1.1" xmlns="http://www.w3.org/2000/svg" p-id="1719" xmlns:xlink="http://www.w3.org/1999/xlink" width="200" height="200"><defs><style type="text/css"></style></defs><path d="M449.877333 511.303111c8.021333 4.010667 16.071111 8.021333 24.106667 8.021333 12.060444 0 24.120889-4.010667 36.195556-12.060444l229.134222-213.048889 44.188444 48.241778 40.220444-140.700444c0-4.010667-4.024889-12.060444-8.049778-12.060444L670.961778 221.866667l44.216889 44.216889-229.12 217.088c-4.024889 4.010667-12.074667 4.010667-20.110222 0l-241.194667-128.64c-8.035556-4.024889-16.085333 0-20.096 8.021333-8.035556 8.035556-4.024889 16.085333 4.010667 20.110222L449.877333 511.303111 449.877333 511.303111 449.877333 511.303111zM449.877333 511.303111" p-id="1720"></path><path d="M217.614222 522.609778l69.461333 0 0 311.68-69.461333 0L217.614222 522.609778 217.614222 522.609778zM217.614222 522.609778" p-id="1721"></path><path d="M464.440889 590.321778l69.461333 0 0 243.968-69.461333 0L464.440889 590.321778 464.440889 590.321778zM464.440889 590.321778" p-id="1722"></path><path d="M711.267556 426.368l69.447111 0 0 407.936-69.447111 0L711.267556 426.368 711.267556 426.368zM711.267556 426.368" p-id="1723"></path></svg>