<?xml version="1.0" standalone="no"?><!DOCTYPE svg PUBLIC "-//W3C//DTD SVG 1.1//EN" "http://www.w3.org/Graphics/SVG/1.1/DTD/svg11.dtd"><svg t="1531969287945" class="icon" style="" viewBox="0 0 1024 1024" version="1.1" xmlns="http://www.w3.org/2000/svg" p-id="7939" xmlns:xlink="http://www.w3.org/1999/xlink" width="200" height="200"><defs><style type="text/css"></style></defs><path d="M182.34856 460.156238c0-156.716274 127.205147-283.774065 284.124036-283.774065 156.910703 0 284.124036 127.057791 284.124036 283.774065 0 156.717298-127.213333 283.774065-284.124036 283.774065C309.553707 743.930303 182.34856 616.872512 182.34856 460.156238M68.704267 460.148052c0 219.415268 178.088024 397.286352 397.769352 397.286352 89.343841 0 171.803901-29.427216 238.20931-79.087243L867.689467 941.148014c11.091616 11.07422 29.079292 11.07422 40.177048 0l40.184211-40.143279c11.093662-11.083429 11.093662-29.052686 0-40.127929L785.042141 698.076976c49.736774-66.313312 79.192643-148.686391 79.192643-237.928924 0-219.423455-178.080861-397.286352-397.761166-397.286352C246.792291 62.8617 68.704267 240.739946 68.704267 460.148052" p-id="7940" fill="#ffffff"></path></svg>